# xmcd CD database file
#
# Track frame offsets:
#	150
#	15705
#	30311
#	48239
#	60292
#	74499
#	91134
#	109081
#	127636
#	144024
#	162125
#	176221
#
# Disc length: 2546 seconds
#
# Revision: 2
# Processed by: cddbd v1.5.2PL0 Copyright (c) Steve Scherf et al.
# Submitted via: CDex 1.51
#
DISCID=8a09f00c
DTITLE=Drake White - Spark
DYEAR=2017
DGENRE=Country
TTITLE0=Heartbeat
TTITLE1=Story
TTITLE2=Makin' Me Look Good Again
TTITLE3=It Feels Good
TTITLE4=Livin' The Dream
TTITLE5=I Need Real
TTITLE6=Back To Free
TTITLE7=Equator
TTITLE8=Live Some
TTITLE9=Waitin' On The Whiskey To Work
TTITLE10=Elvis
TTITLE11=Take Me As I Am
EXTD=YEAR: 2017
EXTT0=
EXTT1=
EXTT2=
EXTT3=
EXTT4=
EXTT5=
EXTT6=
EXTT7=
EXTT8=
EXTT9=
EXTT10=
EXTT11=
PLAYORDER=
